# xmcd
#
# Track frame offsets:
#	150
#	10402
#	16550
#	28155
#	43080
#	56580
#	72345
#	88965
#	107252
#	121317
#	138352
#	155627
#	174050
#	192907
#
# Disc length: 2637 seconds
#
# Revision: 0
# Processed by: cddbd v1.5.2PL0 Copyright (c) Steve Scherf et al.
# Submitted via: EasyCDDAExtractor 7.1.2.1
#
DISCID=b10a4b0e
DTITLE=Various Artist - O Mundo Maravilhoso do Rodeio
DYEAR=2005
DGENRE=Sertanejo
TTITLE0=Fernando Bosato - Abertura
TTITLE1=Ze de Melo - Apresentaçao
TTITLE2=Ze de Melo - Oraçao do Rodeio
TTITLE3=Dallas Companhy - Coraçao Renegado
TTITLE4=Lucas e Leno - Chamame
TTITLE5=Palmeira e Bigua - Rei do Gado
TTITLE6=Dallas Companhy - Cançao que Toca
TTITLE7=Palmeira e Bigua - O Mineiro e o Italiano
TTITLE8=Dallas Companhy - Festa Country
TTITLE9=Lucas e Leno - O Seguro Morreu de Velho
TTITLE10=Tiao Carreiro e Ze Paulo - Porta do Mundo
TTITLE11=Lucas e Leno - Em Cada Coraçao Uma Saudade
TTITLE12=Palmeira e Bigua - Preto de Alma Branca
TTITLE13=Ze de Melo - Encerramento
EXTD=
EXTT0=
EXTT1=
EXTT2=
EXTT3=
EXTT4=
EXTT5=
EXTT6=
EXTT7=
EXTT8=
EXTT9=
EXTT10=
EXTT11=
EXTT12=
EXTT13=
PLAYORDER=
